<svg xmlns="http://www.w3.org/2000/svg" width="120" height="120" viewBox="0 0 120 120" preserveAspectRatio="none"><path d="M 15.00,15.00 L 30.00,15.00 L 30.00,15.00 L 30.75,16.41 L 31.50,17.78 L 32.25,19.09 L 33.00,20.29 L 33.75,21.36 L 34.50,22.28 L 35.25,23.02 L 36.00,23.56 L 36.75,23.89 L 37.50,24.00 L 38.25,23.89 L 39.00,23.56 L 39.75,23.02 L 40.50,22.28 L 41.25,21.36 L 42.00,20.29 L 42.75,19.09 L 43.50,17.78 L 44.25,16.41 L 45.00,15.00 L 45.75,13.59 L 46.50,12.22 L 47.25,10.91 L 48.00,9.71 L 48.75,8.64 L 49.50,7.72 L 50.25,6.98 L 51.00,6.44 L 51.75,6.11 L 52.50,6.00 L 53.25,6.11 L 54.00,6.44 L 54.75,6.98 L 55.50,7.72 L 56.25,8.64 L 57.00,9.71 L 57.75,10.91 L 58.50,12.22 L 59.25,13.59 L 60.00,15.00 L 60.75,16.41 L 61.50,17.78 L 62.25,19.09 L 63.00,20.29 L 63.75,21.36 L 64.50,22.28 L 65.25,23.02 L 66.00,23.56 L 66.75,23.89 L 67.50,24.00 L 68.25,23.89 L 69.00,23.56 L 69.75,23.02 L 70.50,22.28 L 71.25,21.36 L 72.00,20.29 L 72.75,19.09 L 73.50,17.78 L 74.25,16.41 L 75.00,15.00 L 75.75,13.59 L 76.50,12.22 L 77.25,10.91 L 78.00,9.71 L 78.75,8.64 L 79.50,7.72 L 80.25,6.98 L 81.00,6.44 L 81.75,6.11 L 82.50,6.00 L 83.25,6.11 L 84.00,6.44 L 84.75,6.98 L 85.50,7.72 L 86.25,8.64 L 87.00,9.71 L 87.75,10.91 L 88.50,12.22 L 89.25,13.59 L 90.00,15.00 L 105.00,15.00 L 105.00,30.00 L 105.00,30.00 L 103.59,30.75 L 102.22,31.50 L 100.91,32.25 L 99.71,33.00 L 98.64,33.75 L 97.72,34.50 L 96.98,35.25 L 96.44,36.00 L 96.11,36.75 L 96.00,37.50 L 96.11,38.25 L 96.44,39.00 L 96.98,39.75 L 97.72,40.50 L 98.64,41.25 L 99.71,42.00 L 100.91,42.75 L 102.22,43.50 L 103.59,44.25 L 105.00,45.00 L 106.41,45.75 L 107.78,46.50 L 109.09,47.25 L 110.29,48.00 L 111.36,48.75 L 112.28,49.50 L 113.02,50.25 L 113.56,51.00 L 113.89,51.75 L 114.00,52.50 L 113.89,53.25 L 113.56,54.00 L 113.02,54.75 L 112.28,55.50 L 111.36,56.25 L 110.29,57.00 L 109.09,57.75 L 107.78,58.50 L 106.41,59.25 L 105.00,60.00 L 103.59,60.75 L 102.22,61.50 L 100.91,62.25 L 99.71,63.00 L 98.64,63.75 L 97.72,64.50 L 96.98,65.25 L 96.44,66.00 L 96.11,66.75 L 96.00,67.50 L 96.11,68.25 L 96.44,69.00 L 96.98,69.75 L 97.72,70.50 L 98.64,71.25 L 99.71,72.00 L 100.91,72.75 L 102.22,73.50 L 103.59,74.25 L 105.00,75.00 L 106.41,75.75 L 107.78,76.50 L 109.09,77.25 L 110.29,78.00 L 111.36,78.75 L 112.28,79.50 L 113.02,80.25 L 113.56,81.00 L 113.89,81.75 L 114.00,82.50 L 113.89,83.25 L 113.56,84.00 L 113.02,84.75 L 112.28,85.50 L 111.36,86.25 L 110.29,87.00 L 109.09,87.75 L 107.78,88.50 L 106.41,89.25 L 105.00,90.00 L 105.00,105.00 L 90.00,105.00 L 90.00,105.00 L 89.25,106.41 L 88.50,107.78 L 87.75,109.09 L 87.00,110.29 L 86.25,111.36 L 85.50,112.28 L 84.75,113.02 L 84.00,113.56 L 83.25,113.89 L 82.50,114.00 L 81.75,113.89 L 81.00,113.56 L 80.25,113.02 L 79.50,112.28 L 78.75,111.36 L 78.00,110.29 L 77.25,109.09 L 76.50,107.78 L 75.75,106.41 L 75.00,105.00 L 74.25,103.59 L 73.50,102.22 L 72.75,100.91 L 72.00,99.71 L 71.25,98.64 L 70.50,97.72 L 69.75,96.98 L 69.00,96.44 L 68.25,96.11 L 67.50,96.00 L 66.75,96.11 L 66.00,96.44 L 65.25,96.98 L 64.50,97.72 L 63.75,98.64 L 63.00,99.71 L 62.25,100.91 L 61.50,102.22 L 60.75,103.59 L 60.00,105.00 L 59.25,106.41 L 58.50,107.78 L 57.75,109.09 L 57.00,110.29 L 56.25,111.36 L 55.50,112.28 L 54.75,113.02 L 54.00,113.56 L 53.25,113.89 L 52.50,114.00 L 51.75,113.89 L 51.00,113.56 L 50.25,113.02 L 49.50,112.28 L 48.75,111.36 L 48.00,110.29 L 47.25,109.09 L 46.50,107.78 L 45.75,106.41 L 45.00,105.00 L 44.25,103.59 L 43.50,102.22 L 42.75,100.91 L 42.00,99.71 L 41.25,98.64 L 40.50,97.72 L 39.75,96.98 L 39.00,96.44 L 38.25,96.11 L 37.50,96.00 L 36.75,96.11 L 36.00,96.44 L 35.25,96.98 L 34.50,97.72 L 33.75,98.64 L 33.00,99.71 L 32.25,100.91 L 31.50,102.22 L 30.75,103.59 L 30.00,105.00 L 15.00,105.00 L 15.00,90.00 L 15.00,90.00 L 13.59,89.25 L 12.22,88.50 L 10.91,87.75 L 9.71,87.00 L 8.64,86.25 L 7.72,85.50 L 6.98,84.75 L 6.44,84.00 L 6.11,83.25 L 6.00,82.50 L 6.11,81.75 L 6.44,81.00 L 6.98,80.25 L 7.72,79.50 L 8.64,78.75 L 9.71,78.00 L 10.91,77.25 L 12.22,76.50 L 13.59,75.75 L 15.00,75.00 L 16.41,74.25 L 17.78,73.50 L 19.09,72.75 L 20.29,72.00 L 21.36,71.25 L 22.28,70.50 L 23.02,69.75 L 23.56,69.00 L 23.89,68.25 L 24.00,67.50 L 23.89,66.75 L 23.56,66.00 L 23.02,65.25 L 22.28,64.50 L 21.36,63.75 L 20.29,63.00 L 19.09,62.25 L 17.78,61.50 L 16.41,60.75 L 15.00,60.00 L 13.59,59.25 L 12.22,58.50 L 10.91,57.75 L 9.71,57.00 L 8.64,56.25 L 7.72,55.50 L 6.98,54.75 L 6.44,54.00 L 6.11,53.25 L 6.00,52.50 L 6.11,51.75 L 6.44,51.00 L 6.98,50.25 L 7.72,49.50 L 8.64,48.75 L 9.71,48.00 L 10.91,47.25 L 12.22,46.50 L 13.59,45.75 L 15.00,45.00 L 16.41,44.25 L 17.78,43.50 L 19.09,42.75 L 20.29,42.00 L 21.36,41.25 L 22.28,40.50 L 23.02,39.75 L 23.56,39.00 L 23.89,38.25 L 24.00,37.50 L 23.89,36.75 L 23.56,36.00 L 23.02,35.25 L 22.28,34.50 L 21.36,33.75 L 20.29,33.00 L 19.09,32.25 L 17.78,31.50 L 16.41,30.75 L 15.00,30.00 L 15.00,15.00 Z" fill="none" stroke="#000" stroke-width="3" stroke-linejoin="round" stroke-linecap="round"/></svg>