<svg xmlns="http://www.w3.org/2000/svg" width="120" height="120" viewBox="0 0 120 120" preserveAspectRatio="none"><path d="M 15.00,15.00 L 15.80,16.39 L 16.60,17.65 L 17.40,18.64 L 18.20,19.28 L 19.00,19.50 L 19.80,19.28 L 20.60,18.64 L 21.40,17.65 L 22.20,16.39 L 23.00,15.00 L 23.80,13.61 L 24.60,12.35 L 25.40,11.36 L 26.20,10.72 L 27.00,10.50 L 27.80,10.72 L 28.60,11.36 L 29.40,12.35 L 30.20,13.61 L 31.00,15.00 L 31.80,16.39 L 32.60,17.65 L 33.40,18.64 L 34.20,19.28 L 35.00,19.50 L 35.80,19.28 L 36.60,18.64 L 37.40,17.65 L 38.20,16.39 L 39.00,15.00 L 39.80,13.61 L 40.60,12.35 L 41.40,11.36 L 42.20,10.72 L 43.00,10.50 L 43.80,10.72 L 44.60,11.36 L 45.40,12.35 L 46.20,13.61 L 47.00,15.00 L 47.80,16.39 L 48.60,17.65 L 49.40,18.64 L 50.20,19.28 L 51.00,19.50 L 51.80,19.28 L 52.60,18.64 L 53.40,17.65 L 54.20,16.39 L 55.00,15.00 L 55.80,13.61 L 56.60,12.35 L 57.40,11.36 L 58.20,10.72 L 59.00,10.50 L 59.80,10.72 L 60.60,11.36 L 61.40,12.35 L 62.20,13.61 L 63.00,15.00 L 63.80,16.39 L 64.60,17.65 L 65.40,18.64 L 66.20,19.28 L 67.00,19.50 L 67.80,19.28 L 68.60,18.64 L 69.40,17.65 L 70.20,16.39 L 71.00,15.00 L 71.80,13.61 L 72.60,12.35 L 73.40,11.36 L 74.20,10.72 L 75.00,10.50 L 75.80,10.72 L 76.60,11.36 L 77.40,12.35 L 78.20,13.61 L 79.00,15.00 L 79.80,16.39 L 80.60,17.65 L 81.40,18.64 L 82.20,19.28 L 83.00,19.50 L 83.80,19.28 L 84.60,18.64 L 85.40,17.65 L 86.20,16.39 L 87.00,15.00 L 87.80,13.61 L 88.60,12.35 L 89.40,11.36 L 90.20,10.72 L 91.00,10.50 L 91.80,10.72 L 92.60,11.36 L 93.40,12.35 L 94.20,13.61 L 95.00,15.00 L 95.80,16.39 L 96.60,17.65 L 97.40,18.64 L 98.20,19.28 L 99.00,19.50 L 99.80,19.28 L 100.60,18.64 L 101.40,17.65 L 102.20,16.39 L 103.00,15.00 L 103.80,13.61 L 104.60,12.35 L 105.00,15.00 L 103.61,15.80 L 102.35,16.60 L 101.36,17.40 L 100.72,18.20 L 100.50,19.00 L 100.72,19.80 L 101.36,20.60 L 102.35,21.40 L 103.61,22.20 L 105.00,23.00 L 106.39,23.80 L 107.65,24.60 L 108.64,25.40 L 109.28,26.20 L 109.50,27.00 L 109.28,27.80 L 108.64,28.60 L 107.65,29.40 L 106.39,30.20 L 105.00,31.00 L 103.61,31.80 L 102.35,32.60 L 101.36,33.40 L 100.72,34.20 L 100.50,35.00 L 100.72,35.80 L 101.36,36.60 L 102.35,37.40 L 103.61,38.20 L 105.00,39.00 L 106.39,39.80 L 107.65,40.60 L 108.64,41.40 L 109.28,42.20 L 109.50,43.00 L 109.28,43.80 L 108.64,44.60 L 107.65,45.40 L 106.39,46.20 L 105.00,47.00 L 103.61,47.80 L 102.35,48.60 L 101.36,49.40 L 100.72,50.20 L 100.50,51.00 L 100.72,51.80 L 101.36,52.60 L 102.35,53.40 L 103.61,54.20 L 105.00,55.00 L 106.39,55.80 L 107.65,56.60 L 108.64,57.40 L 109.28,58.20 L 109.50,59.00 L 109.28,59.80 L 108.64,60.60 L 107.65,61.40 L 106.39,62.20 L 105.00,63.00 L 103.61,63.80 L 102.35,64.60 L 101.36,65.40 L 100.72,66.20 L 100.50,67.00 L 100.72,67.80 L 101.36,68.60 L 102.35,69.40 L 103.61,70.20 L 105.00,71.00 L 106.39,71.80 L 107.65,72.60 L 108.64,73.40 L 109.28,74.20 L 109.50,75.00 L 109.28,75.80 L 108.64,76.60 L 107.65,77.40 L 106.39,78.20 L 105.00,79.00 L 103.61,79.80 L 102.35,80.60 L 101.36,81.40 L 100.72,82.20 L 100.50,83.00 L 100.72,83.80 L 101.36,84.60 L 102.35,85.40 L 103.61,86.20 L 105.00,87.00 L 106.39,87.80 L 107.65,88.60 L 108.64,89.40 L 109.28,90.20 L 109.50,91.00 L 109.28,91.80 L 108.64,92.60 L 107.65,93.40 L 106.39,94.20 L 105.00,95.00 L 103.61,95.80 L 102.35,96.60 L 101.36,97.40 L 100.72,98.20 L 100.50,99.00 L 100.72,99.80 L 101.36,100.60 L 102.35,101.40 L 103.61,102.20 L 105.00,103.00 L 106.39,103.80 L 107.65,104.60 L 105.00,108.18 L 104.20,107.04 L 103.40,105.70 L 102.60,104.30 L 101.80,102.96 L 101.00,101.82 L 100.20,100.99 L 99.40,100.56 L 98.60,100.56 L 97.80,100.99 L 97.00,101.82 L 96.20,102.96 L 95.40,104.30 L 94.60,105.70 L 93.80,107.04 L 93.00,108.18 L 92.20,109.01 L 91.40,109.44 L 90.60,109.44 L 89.80,109.01 L 89.00,108.18 L 88.20,107.04 L 87.40,105.70 L 86.60,104.30 L 85.80,102.96 L 85.00,101.82 L 84.20,100.99 L 83.40,100.56 L 82.60,100.56 L 81.80,100.99 L 81.00,101.82 L 80.20,102.96 L 79.40,104.30 L 78.60,105.70 L 77.80,107.04 L 77.00,108.18 L 76.20,109.01 L 75.40,109.44 L 74.60,109.44 L 73.80,109.01 L 73.00,108.18 L 72.20,107.04 L 71.40,105.70 L 70.60,104.30 L 69.80,102.96 L 69.00,101.82 L 68.20,100.99 L 67.40,100.56 L 66.60,100.56 L 65.80,100.99 L 65.00,101.82 L 64.20,102.96 L 63.40,104.30 L 62.60,105.70 L 61.80,107.04 L 61.00,108.18 L 60.20,109.01 L 59.40,109.44 L 58.60,109.44 L 57.80,109.01 L 57.00,108.18 L 56.20,107.04 L 55.40,105.70 L 54.60,104.30 L 53.80,102.96 L 53.00,101.82 L 52.20,100.99 L 51.40,100.56 L 50.60,100.56 L 49.80,100.99 L 49.00,101.82 L 48.20,102.96 L 47.40,104.30 L 46.60,105.70 L 45.80,107.04 L 45.00,108.18 L 44.20,109.01 L 43.40,109.44 L 42.60,109.44 L 41.80,109.01 L 41.00,108.18 L 40.20,107.04 L 39.40,105.70 L 38.60,104.30 L 37.80,102.96 L 37.00,101.82 L 36.20,100.99 L 35.40,100.56 L 34.60,100.56 L 33.80,100.99 L 33.00,101.82 L 32.20,102.96 L 31.40,104.30 L 30.60,105.70 L 29.80,107.04 L 29.00,108.18 L 28.20,109.01 L 27.40,109.44 L 26.60,109.44 L 25.80,109.01 L 25.00,108.18 L 24.20,107.04 L 23.40,105.70 L 22.60,104.30 L 21.80,102.96 L 21.00,101.82 L 20.20,100.99 L 19.40,100.56 L 18.60,100.56 L 17.80,100.99 L 17.00,101.82 L 16.20,102.96 L 15.40,104.30 L 11.82,105.00 L 12.96,104.20 L 14.30,103.40 L 15.70,102.60 L 17.04,101.80 L 18.18,101.00 L 19.01,100.20 L 19.44,99.40 L 19.44,98.60 L 19.01,97.80 L 18.18,97.00 L 17.04,96.20 L 15.70,95.40 L 14.30,94.60 L 12.96,93.80 L 11.82,93.00 L 10.99,92.20 L 10.56,91.40 L 10.56,90.60 L 10.99,89.80 L 11.82,89.00 L 12.96,88.20 L 14.30,87.40 L 15.70,86.60 L 17.04,85.80 L 18.18,85.00 L 19.01,84.20 L 19.44,83.40 L 19.44,82.60 L 19.01,81.80 L 18.18,81.00 L 17.04,80.20 L 15.70,79.40 L 14.30,78.60 L 12.96,77.80 L 11.82,77.00 L 10.99,76.20 L 10.56,75.40 L 10.56,74.60 L 10.99,73.80 L 11.82,73.00 L 12.96,72.20 L 14.30,71.40 L 15.70,70.60 L 17.04,69.80 L 18.18,69.00 L 19.01,68.20 L 19.44,67.40 L 19.44,66.60 L 19.01,65.80 L 18.18,65.00 L 17.04,64.20 L 15.70,63.40 L 14.30,62.60 L 12.96,61.80 L 11.82,61.00 L 10.99,60.20 L 10.56,59.40 L 10.56,58.60 L 10.99,57.80 L 11.82,57.00 L 12.96,56.20 L 14.30,55.40 L 15.70,54.60 L 17.04,53.80 L 18.18,53.00 L 19.01,52.20 L 19.44,51.40 L 19.44,50.60 L 19.01,49.80 L 18.18,49.00 L 17.04,48.20 L 15.70,47.40 L 14.30,46.60 L 12.96,45.80 L 11.82,45.00 L 10.99,44.20 L 10.56,43.40 L 10.56,42.60 L 10.99,41.80 L 11.82,41.00 L 12.96,40.20 L 14.30,39.40 L 15.70,38.60 L 17.04,37.80 L 18.18,37.00 L 19.01,36.20 L 19.44,35.40 L 19.44,34.60 L 19.01,33.80 L 18.18,33.00 L 17.04,32.20 L 15.70,31.40 L 14.30,30.60 L 12.96,29.80 L 11.82,29.00 L 10.99,28.20 L 10.56,27.40 L 10.56,26.60 L 10.99,25.80 L 11.82,25.00 L 12.96,24.20 L 14.30,23.40 L 15.70,22.60 L 17.04,21.80 L 18.18,21.00 L 19.01,20.20 L 19.44,19.40 L 19.44,18.60 L 19.01,17.80 L 18.18,17.00 L 17.04,16.20 L 15.70,15.40 Z" fill="#fff" stroke="#000" stroke-width="2.7" stroke-linejoin="round" stroke-linecap="round"/></svg>
